<svg xmlns="http://www.w3.org/2000/svg" xml:space="preserve" width="16" height="16" style="shape-rendering:geometricPrecision;text-rendering:geometricPrecision;image-rendering:optimizeQuality;fill-rule:evenodd;clip-rule:evenodd" viewBox="0 0 165.49 135.85"><path d="M138.59 17.01C124.17 4.02 110.47 0 110.47 0L82.83 94.15h-.24L54.71 0s-13.7 3.9-28.12 17.01C11.24 30.95-1.99 52.33.25 86.24c1.77 26.81 21.62 49.61 21.62 49.61l38.39-.11S27.3 118.25 19.39 90.73c-9.45-32.49 5.31-55.05 16.65-65.8 4.61-4.02 11.35-4.97 13.83 3.66l32.84 106.32h.12s24.21-78.8 32.84-106.32c2.6-8.63 9.33-7.68 13.82-3.66 11.34 10.75 26.11 33.31 16.66 65.8-7.92 27.52-40.88 45.01-40.88 45.01l38.39.11s19.97-22.91 21.62-49.61c2.01-33.91-11.22-55.29-26.7-69.23h.01z" style="fill:#b59e89"/></svg>